
            <svg 
            version="1.1" 
            xmlns="http://www.w3.org/2000/svg" 
            xmlns:xlink="http://www.w3.org/1999/xlink" 
            x="0px" 
            y="0px" 
            width="400px"
            height="180px" 
            viewBox="0 -30 400 180" 
            enable-background="new 0 -30 400 180" 
            xml:space="preserve">
           
         
            
            <g id="card">
            <rect 
            x="0" y="-30" 
            width="400" height="180" 
            rx="3" ry="3"
            fill="#2a295b" />
            </g>
       
            
        <polygon 
        fill="#b500ed" 
        points="302.992,-19 297.25,-19 291.008,-19 285.016,0.624 291.008,20.25 296.11,20.25 302.992,20.25 
		400,20.25 400,-19 	"/>
        
            
    <g id="header" transform="matrix(1 0 0 1 0 -1)">
    <polygon 
    fill="#141414" 
    stroke="#ECB613" 
    stroke-miterlimit="10" 
    points="83.891,1.001 77.668,-9.777 66.167,-9.777 65.223,-9.777 
        33.501,-9.777 32.917,-9.777 21.056,-9.777 14.833,1.001 21.056,11.778 32.917,11.778 33.501,11.778 66.167,11.778 66.167,11.777 
        77.668,11.777 	
    "/>   
    
        <text transform="matrix(1 0 0 1 40.5002 5.35)"
        fill="#ECB613"
        font-family="Sans-Serif"
        font-style="normal"
        font-size="14"
        >6 kyu</text>
        
    
    <g transform="matrix(1 0 0 1 0 0)">
    <path 
    fill="#ECB613" 
    d="M30.699-6.042h-8.133L18.5,1.001l4.066,7.042h8.133l4.066-7.042L30.699-6.042z M30.101-3.044
	c0.102,0.234,0.297,0.477,0.608,0.372l0.672,0.596l0.179,0.79l-0.102,0.081c-0.448-0.292-1.016,0.033-1.45-0.348
	c-0.033-0.029-0.098-0.038-0.146-0.03c-0.433,0.066-0.889,0.075-1.294,0.221c-0.766,0.275-1.467,0.681-1.955,1.468
	c-0.334-0.354-0.332-0.72-0.255-1.081c0.075-0.349,0.199-0.686,0.309-1.058c0.424,0.005,0.405-0.393,0.52-0.628
	C28.13-3.025,29.035-3.419,30.101-3.044z M23.867-1.723c0.053-0.114,0.16-0.257,0.127-0.343c-0.095-0.256,0.088-0.453,0.091-0.661
	c0.01-0.541,0.608-0.649,0.715-1.093c0.576-0.253,1.111-0.672,1.809-0.465c0.108,0.033,0.225,0.03,0.324,0.042
	c0.126,0.254-0.009,0.395-0.136,0.562c-0.117,0.153-0.177,0.349-0.268,0.538c-0.672,0.25-0.68,0.261-0.53,0.865
	c-0.327,0.146-0.525,0.381-0.353,0.779c0.02,0.062,0.01,0.131-0.026,0.186c-0.155,0.181-0.126,0.35-0.046,0.559
	c0.044,0.116-0.043,0.282-0.069,0.422c0.143,0.198,0.3,0.386,0.422,0.595c0.045,0.079,0.057,0.254,0.01,0.291
	c-0.072,0.058-0.228,0.078-0.316,0.039C25.27,0.439,24.901,0.3,24.596,0.074c-0.238-0.176-0.404-0.458-0.575-0.713
	c-0.124-0.187-0.2-0.403-0.345-0.703C23.71-1.405,23.793-1.562,23.867-1.723z M21.273-0.051c0.094-0.919,0.423-1.637,1.208-2.095
	c-0.048,0.421,0.004,0.751,0.4,0.956c-0.155,0.437-0.185,0.822,0.354,0.978c0.03,0.008,0.076,0.034,0.077,0.055
	c0.04,0.48,0.462,0.53,0.769,0.742c0.492,0.339,0.984,0.557,1.587,0.483c0.098-0.012,0.205,0.039,0.317,0.062
	c-0.061,0.484-0.429,0.712-0.728,0.819c-0.568,0.202-1.145,0.574-1.809,0.25c-0.127-0.062-0.325,0.018-0.436,0.028
	c-0.694-0.323-1.027-0.99-1.61-1.42C21.431,0.505,21.655,0.152,21.273-0.051z M23.238,4.813c-0.513-0.175-0.922-0.44-1.303-0.817
	c-0.313-0.309-0.395-0.611-0.282-1.012h1.026c0.246,0.3,0.594,0.465,1.044,0.197c0.073-0.043,0.191-0.01,0.288-0.022
	c0.194-0.023,0.39-0.042,0.582-0.087c0.188-0.043,0.371-0.113,0.555-0.171c0.063-0.019,0.146-0.018,0.19-0.059
	c0.269-0.259,0.532-0.524,0.789-0.794c0.161-0.169,0.306-0.356,0.507-0.593c0.375,0.813,0.104,1.526-0.235,2.199
	c-0.145,0.191-0.292,0.381-0.435,0.573c-0.041,0.053-0.073,0.16-0.11,0.16c-0.506-0.001-0.809,0.504-1.343,0.498
	C24.083,4.879,23.675,4.961,23.238,4.813z M29.131,5.012l-0.874,0.839L27.496,6.19c-0.24,0.045-0.475,0.112-0.714,0.128
	c-0.229,0.017-0.508,0.059-0.684-0.047c-0.293-0.174-0.763-0.042-0.937-0.539c0.951,0.013,1.051-0.049,1.264-0.748
	c0.405-0.135,0.753-0.345,0.758-0.863c0-0.063,0.098-0.125,0.15-0.189c0.063-0.075,0.174-0.146,0.184-0.229
	c0.074-0.617,0.208-1.237-0.009-1.853c-0.085-0.244-0.182-0.485-0.309-0.825c0.249,0.025,0.414,0.01,0.554,0.062
	c0.598,0.219,1.076,0.621,1.451,1.118c0.176,0.234,0.223,0.565,0.357,0.929c-0.148,0.217-0.216,0.53,0.056,0.849
	C29.26,4.274,29.073,4.616,29.131,5.012z M30.932,4.028L30.932,4.028c-0.065-0.172-0.167-0.306-0.146-0.414
	c0.064-0.334-0.067-0.556-0.355-0.739c0.133-0.407-0.007-0.708-0.372-0.925c-0.082-0.048-0.153-0.177-0.164-0.276
	c-0.033-0.282-0.182-0.418-0.454-0.453c-0.081-0.009-0.191-0.023-0.231-0.078c-0.392-0.542-1-0.532-1.567-0.631
	c-0.137-0.023-0.274-0.042-0.425-0.064c0.041-0.487,0.432-0.629,0.687-0.722c0.582-0.213,1.216-0.506,1.839-0.24
	c0.495,0.211,1.105,0.248,1.433,0.803c0.101,0.17,0.332,0.264,0.503,0.393l0.312,0.961v0.997C31.727,3.042,31.523,3.6,30.932,4.028
	z" />
    </g>
    
    </g>
    
            
        <text transform="matrix(1 0 0 1 100.5002 -0.5)"
        fill="#fc4646"
        font-family="Sans-Serif"
        font-style="normal"
        font-size="20"
        >Christian Haag</text>
        ,
        <text transform="matrix(1 0 0 1 100.5002 12.5)"
        fill="#918A8A"
        font-family="Sans-Serif"
        font-style="italic"
        font-size="12"
        >alias</text>
        ,
        <text transform="matrix(1 0 0 1 128.5002 12.5)"
        fill="#fc4646"
        font-family="Sans-Serif"
        font-style="italic"
        font-size="12"
        >vanhaaggen</text>
        
            
        <text transform="matrix(1 0 0 1 307.3206 5)"
        fill="#fc4646"
        font-family="Sans-Serif"
        font-style="normal"
        font-size="12"
        >135</text>
        
            
    <g transform="matrix(1 0 0 1 0 0)">
    <path 
    fill="#fc4646" 
    d="M301.301-3.7h-6.89v0.861l2.502,1.878c-1.581,0.521-2.441,2.227-1.922,3.807
	c0.522,1.581,2.219,2.442,3.808,1.921c1.58-0.521,2.442-2.222,1.921-3.807c-0.302-0.909-1.012-1.624-1.921-1.92l2.502-1.878V-3.7
	 M299.122,3.837l-1.267-0.741l-1.265,0.741l0.335-1.434l-1.115-0.965l1.469-0.125l0.576-1.353l0.578,1.353l1.469,0.125
	l-1.116,0.965L299.122,3.837z" />
    </g>
    
            
    <g transform="matrix(1 0 0 1 0 -19.15)">
    <path 
    fill="#2a295b" 
    d="M384.496,5h-24.993c-1.381,0.004-2.5,1.122-2.503,2.503v24.994c0.003,1.381,1.122,2.499,2.503,2.503
	h24.993c1.381-0.004,2.5-1.122,2.504-2.503V7.503C386.996,6.122,385.877,5.004,384.496,5z M385.065,22.828
	c-0.123,0.122-0.24,0.25-0.408,0.423c0.24,1.448-0.707,2.308-1.747,3.11c-1.081,0.838-2.168,1.668-3.263,2.49
	c-0.245,0.184-0.544,0.293-0.82,0.438c-0.683,1.886-0.94,2.118-2.388,2.085c-0.346,0.931-1.034,1.301-2.034,1.039
	c-0.066-0.019-0.17-0.076-0.191-0.054c-0.974,1-2.09,0.229-3.103,0.164c-0.75-0.049-1.508-0.53-2.183-0.947
	c-0.57-0.352-0.975-1-1.784-0.813c-0.035,0.006-0.07-0.002-0.1-0.021c-0.782-0.565-1.727-0.218-2.52-0.431
	c-1.028-0.275-1.942-0.994-2.883-1.56c-0.141-0.084-0.17-0.364-0.24-0.558c-0.049-0.131-0.05-0.358-0.125-0.385
	c-1.028-0.35-0.99-1.328-1.33-2.109c-0.315-0.727-0.535-1.378-0.134-2.133c0.094-0.178,0.09-0.478,0.01-0.67
	c-0.518-1.238-0.529-1.234-0.401-2.465c-1.063-0.906-1.221-1.594-0.356-2.686c-0.346-0.784-0.52-1.576,0.425-2.142
	c0.07-0.043,0.095-0.18,0.12-0.279c0.309-1.21,1.222-1.971,2.183-2.566c0.88-0.546,1.949-0.682,2.529-1.783
	c0.217-0.411,0.891-0.652,1.024-1.279c0.032-0.148,0.197-0.293,0.336-0.387c0.693-0.463,1.502-0.702,2.135-1.328
	c0.266-0.262,1.008-0.043,1.712-0.043c0.937-1.169,2.222-0.219,3.408-0.067c0.561,0.071,1.063,0.571,1.605,0.852
	c0.237,0.124,0.503,0.204,0.765,0.27c0.165,0.04,0.368-0.036,0.516,0.028c0.832,0.361,1.66,0.596,2.566,0.247
	c0.124-0.048,0.403,0.047,0.474,0.16c0.582,0.93,1.761,0.63,2.474,1.234c0.205,0.174,0.237,0.55,0.377,0.904
	c0.681,0.223,1.425,0.491,1.245,1.511c0.729,0.45,0.252,1.4,0.797,1.927c-0.575,1.257,0.765,2.304,0.389,3.623
	c0.178,0.123,0.447,0.236,0.605,0.437c0.227,0.288,0.609,0.788,0.515,0.94C384.681,20.938,385.944,21.963,385.065,22.828
	L385.065,22.828z M371.706,11.442c-1.385,0.513-1.4,0.537-1.092,1.779c-0.673,0.3-1.08,0.787-0.725,1.605
	c0.041,0.129,0.021,0.27-0.054,0.383c-0.319,0.374-0.259,0.72-0.094,1.152c0.09,0.238-0.088,0.58-0.144,0.87
	c0.295,0.407,0.616,0.795,0.869,1.224c0.095,0.16,0.119,0.523,0.021,0.6c-0.149,0.12-0.47,0.159-0.65,0.08
	c-0.726-0.316-1.487-0.604-2.114-1.068c-0.49-0.363-0.834-0.946-1.184-1.47c-0.255-0.384-0.412-0.831-0.709-1.446
	c0.066-0.13,0.238-0.453,0.393-0.784c0.107-0.234,0.33-0.529,0.262-0.708c-0.196-0.527,0.18-0.932,0.188-1.361
	c0.021-1.112,1.25-1.337,1.473-2.249c1.188-0.523,2.287-1.385,3.724-0.959c0.224,0.067,0.466,0.062,0.67,0.087
	c0.26,0.524-0.02,0.813-0.281,1.158C372.019,10.65,371.894,11.053,371.706,11.442L371.706,11.442z M380.312,12.411l1.386,1.227
	l0.368,1.626l-0.211,0.166c-0.923-0.602-2.094,0.066-2.986-0.716c-0.067-0.06-0.202-0.078-0.3-0.063
	c-0.893,0.136-1.83,0.155-2.667,0.455c-1.576,0.566-3.02,1.401-4.024,3.022c-0.69-0.731-0.683-1.482-0.525-2.225
	c0.153-0.718,0.408-1.414,0.636-2.18c0.872,0.01,0.833-0.808,1.071-1.292c1.94-0.746,3.806-1.559,6.001-0.786
	C379.268,12.128,379.671,12.627,380.312,12.411L380.312,12.411z M371.919,20.906c0.774,1.676,0.215,3.145-0.484,4.529
	c-0.298,0.393-0.599,0.784-0.895,1.181c-0.083,0.11-0.151,0.329-0.227,0.329c-1.043-0.002-1.667,1.037-2.766,1.025
	c-0.882-0.009-1.721,0.159-2.623-0.147c-1.055-0.36-1.897-0.905-2.684-1.683c-0.644-0.636-0.813-1.257-0.581-2.084h2.114
	c0.506,0.618,1.223,0.957,2.148,0.405c0.151-0.09,0.395-0.021,0.593-0.045c0.402-0.05,0.806-0.09,1.2-0.181
	c0.387-0.088,0.763-0.232,1.144-0.351c0.131-0.041,0.302-0.038,0.391-0.122c0.554-0.533,1.096-1.078,1.625-1.635
	C371.205,21.779,371.504,21.395,371.919,20.906L371.919,20.906z M363.368,13.494c-0.099,0.867,0.009,1.546,0.824,1.968
	c-0.32,0.9-0.38,1.692,0.728,2.013c0.062,0.018,0.156,0.07,0.16,0.113c0.082,0.988,0.949,1.092,1.583,1.528
	c1.014,0.699,2.025,1.145,3.269,0.997c0.203-0.024,0.422,0.079,0.653,0.127c-0.126,0.996-0.884,1.466-1.499,1.685
	c-1.169,0.417-2.355,1.183-3.726,0.515c-0.262-0.127-0.667,0.039-0.897,0.06c-1.43-0.664-2.115-2.04-3.314-2.925
	c0.057-0.62,0.519-1.347-0.268-1.765C361.073,15.917,361.751,14.437,363.368,13.494L363.368,13.494z M380.772,26.211
	c-0.134-0.357-0.343-0.631-0.3-0.855c0.132-0.688-0.138-1.145-0.732-1.521c0.273-0.84-0.014-1.456-0.766-1.903
	c-0.17-0.101-0.314-0.365-0.337-0.57c-0.068-0.58-0.374-0.861-0.935-0.931c-0.166-0.02-0.396-0.048-0.476-0.16
	c-0.808-1.117-2.061-1.097-3.228-1.3c-0.281-0.048-0.564-0.087-0.875-0.134c0.086-1.003,0.891-1.294,1.415-1.487
	c1.197-0.44,2.504-1.041,3.786-0.495c1.021,0.436,2.277,0.51,2.952,1.654c0.207,0.351,0.684,0.544,1.035,0.808l0.643,1.978v2.056
	C382.407,24.18,381.99,25.326,380.772,26.211L380.772,26.211z M368.889,29.717c1.956,0.027,2.165-0.1,2.604-1.54
	c0.833-0.276,1.55-0.712,1.56-1.778c0.001-0.129,0.202-0.258,0.31-0.388c0.132-0.157,0.358-0.302,0.379-0.473
	c0.153-1.271,0.428-2.548-0.018-3.815c-0.176-0.503-0.374-0.998-0.637-1.698c0.512,0.051,0.852,0.02,1.142,0.126
	c1.23,0.453,2.217,1.279,2.987,2.302c0.362,0.482,0.459,1.164,0.733,1.915c-0.303,0.446-0.443,1.092,0.117,1.747
	c-0.739,0.6-1.123,1.303-1.004,2.119l-1.8,1.729l-1.567,0.697c-0.495,0.094-0.979,0.23-1.47,0.264
	c-0.473,0.034-1.046,0.12-1.409-0.097C370.213,30.468,369.245,30.739,368.889,29.717L368.889,29.717z" />
    </g>
    
            
        <line 
        fill="#ECB613" 
        stroke="#ECB613" 
        stroke-width="5"
        stroke-linecap="round"
        stroke-miterlimit="10" 
        x1="0" 
        y1="39.5" 
        x2="190.8" 
        y2="39.5"
        />
        
        <text transform="matrix(1 0 0 1 20.5002 35.5)"
        fill="#AAAAAA"
        font-family="Sans-Serif"
        font-style="normal"
        font-size="13"
        >47.7%</text>
        
        
            
        <g id="challenges">
        
        <text transform="matrix(1 0 0 1 17.5002 66.5)"
        fill="#AAAAAA"
        font-family="Sans-Serif"
        font-style="normal"
        font-size="12"
        >Challenges:</text>
        
        
        <text transform="matrix(1 0 0 1 15.5002 84.7822)"
        fill="#fc4646"
        font-family="Sans-Serif"
        font-style="normal"
        font-size="14"
        ><tspan x="3.01" y="0">Total completed:</tspan>
            <tspan x="115.198" y="0"> 21</tspan></text>
        
      
        
        <text transform="matrix(1 0 0 1 201.5002 84.7822)"
        fill="#fc4646"
        font-family="Sans-Serif"
        font-style="normal"
        font-size="14"
        >
        <tspan x="0" y="0" >Total authored:</tspan>
        <tspan x="103.257" y="0">0</tspan>
        </text>
           
       
    </g>
        
            
            
        <text transform="matrix(1 0 0 1 18.5002 105.5)"
        fill="#AAAAAA"
        font-family="Sans-Serif"
        font-style="normal"
        font-size="12"
        >Top 3 languages:</text>
        
            
        <g transform="matrix(1 0 0 1 18 114)">
        <path
        fill="#fc4646"
        d="M.38 10.377l-.272-.037c-.048.344-.082.695-.101 1.041l.275.016c.018-.34.051-.682.098-1.02zM4.136 3.289l-.184-.205c-.258.232-.509.48-.746.734l.202.188c.231-.248.476-.49.728-.717zM5.769 2.059l-.146-.235c-.296.186-.586.385-.863.594l.166.219c.27-.203.554-.399.843-.578zM1.824 18.369c.185.297.384.586.593.863l.22-.164c-.205-.271-.399-.555-.58-.844l-.233.145zM1.127 16.402l-.255.104c.129.318.274.635.431.943l.005.01.245-.125-.005-.01c-.153-.301-.295-.611-.421-.922zM.298 9.309l.269.063c.076-.332.168-.664.272-.986l-.261-.087c-.108.332-.202.672-.28 1.01zM.274 12.42l-.275.01c.012.348.04.699.083 1.043l.273-.033c-.042-.336-.069-.68-.081-1.02zM.256 14.506c.073.34.162.682.264 1.014l.263-.08c-.1-.326-.187-.658-.258-.99l-.269.056zM11.573.275L11.563 0c-.348.012-.699.039-1.044.082l.034.273c.338-.041.68-.068 1.02-.08zM23.221 8.566c.1.326.186.66.256.992l.27-.059c-.072-.34-.16-.682-.262-1.014l-.264.081zM17.621 1.389c-.309-.164-.627-.314-.947-.449l-.107.252c.314.133.625.281.926.439l.128-.242zM15.693.572c-.332-.105-.67-.199-1.01-.277l-.063.268c.332.076.664.168.988.273l.085-.264zM6.674 1.545c.298-.15.606-.291.916-.418L7.486.873c-.317.127-.632.272-.937.428l-.015.008.125.244.015-.008zM23.727 11.588l.275-.01a11.797 11.797 0 0 0-.082-1.045l-.273.033c.041.338.068.682.08 1.022zM13.654.105c-.346-.047-.696-.08-1.043-.098l-.014.273c.339.018.683.051 1.019.098l.038-.273zM9.544.527l-.058-.27c-.34.072-.681.16-1.014.264l.081.262c.325-.099.659-.185.991-.256zM1.921 5.469l.231.15c.185-.285.384-.566.592-.834l-.217-.17c-.213.276-.417.563-.606.854zM.943 7.318l.253.107c.132-.313.28-.625.439-.924l-.243-.128c-.163.307-.314.625-.449.945zM18.223 21.943l.145.234c.295-.186.586-.385.863-.594l-.164-.219c-.272.204-.557.4-.844.579zM21.248 19.219l.217.17c.215-.273.418-.561.607-.854l-.23-.148c-.186.285-.385.564-.594.832zM19.855 20.715l.184.203c.258-.23.51-.479.746-.732l-.201-.188c-.23.248-.477.488-.729.717zM22.359 17.504l.244.129c.162-.307.314-.625.449-.945l-.254-.107a11.27 11.27 0 0 1-.439.923zM23.617 13.629l.273.039c.049-.346.082-.695.102-1.043l-.275-.014c-.018.338-.051.682-.1 1.018zM23.156 15.621l.264.086c.107-.332.201-.67.279-1.01l-.268-.063c-.077.333-.169.665-.275.987zM22.453 6.672c.154.303.297.617.424.932l.256-.104c-.131-.322-.277-.643-.436-.953l-.244.125zM8.296 23.418c.331.107.67.201 1.009.279l.062-.268c-.331-.076-.663-.168-.986-.273l-.085.262zM10.335 23.889c.345.049.696.082 1.043.102l.014-.275c-.339-.018-.682-.051-1.019-.098l-.038.271zM17.326 22.449c-.303.154-.613.297-.926.424l.104.256c.318-.131.639-.275.947-.434l.004-.002-.123-.246-.006.002zM4.613 21.467c.274.213.562.418.854.605l.149-.23c-.285-.184-.565-.385-.833-.592l-.17.217zM12.417 23.725l.009.275c.348-.014.699-.041 1.045-.084l-.035-.271c-.336.041-.68.068-1.019.08zM6.37 22.604c.307.162.625.314.946.449l.107-.254c-.313-.133-.624-.279-.924-.439l-.129.244zM3.083 20.041c.233.258.48.51.734.746l.188-.201c-.249-.23-.49-.477-.717-.729l-.205.184zM14.445 23.475l.059.27c.34-.074.68-.162 1.014-.266l-.082-.262c-.325.099-.659.185-.991.258zM21.18.129A2.689 2.689 0 1 0 21.18 5.507 2.689 2.689 0 1 0 21.18.129zM15.324 15.447c0 .471.314.66.852.66.67 0 1.297-.396 1.297-1.016v-.645c-.23.107-.379.141-1.107.24-.735.109-1.042.306-1.042.761zM12 2.818c-5.07 0-9.18 4.109-9.18 9.18 0 5.068 4.11 9.18 9.18 9.18 5.07 0 9.18-4.111 9.18-9.18 0-5.07-4.11-9.18-9.18-9.18zm-2.487 13.77H5.771v-6.023h.769v5.346h2.974v.677zm4.13 0h-.619v-.67c-.405.57-.811.793-1.446.793-.843 0-1.38-.463-1.38-1.182v-3.271h.686v3c0 .52.347.85.893.85.719 0 1.181-.578 1.181-1.461v-2.389h.686v4.33zm-.53-8.393c0-1.484 1.205-2.689 2.689-2.689s2.688 1.205 2.688 2.689-1.203 2.688-2.688 2.688-2.689-1.203-2.689-2.688zm5.567 7.856v.52c-.223.059-.33.074-.471.074-.34 0-.637-.238-.711-.57-.381.406-.918.637-1.471.637-.877 0-1.422-.463-1.422-1.248 0-.527.256-.916.76-1.123.266-.107.414-.141 1.389-.264.545-.066.719-.191.719-.48v-.182c0-.412-.348-.645-.967-.645-.645 0-.957.24-1.016.77h-.693c.041-1 .686-1.404 1.734-1.404 1.066 0 1.627.412 1.627 1.182v2.412c0 .215.133.338.373.338.041-.002.074-.002.149-.017z"
        />
        <g transform="matrix(1 0 0 1 28 8.5)">
            
        <text transform="matrix(1 0 0 1 0 0)"
        fill="#AAAAAA"
        font-family="Sans-Serif"
        font-style="normal"
        font-size="10"
        >score:</text>
        
            
        <text transform="matrix(1 0 0 1 0 13)"
        fill="#AAAAAA"
        font-family="Sans-Serif"
        font-style="normal"
        font-size="13"
        >17856</text>
        
        </g>
        </g>
        ,
        <g transform="matrix(1 0 0 1 110 114)">
        <path
        fill="#fc4646"
        d="M5.896,21.047h3.631c2.594-0.017,4.637-1.005,6.193-2.967c0.762-0.973,1.523-2.399,2.254-4.28h4.199v-3.615h-2.756
	c0.568-1.249,1.166-2.141,1.783-2.676c0.729-0.632,1.654-0.94,2.789-0.94V2.953c-2.578,0-4.67,0.989-6.242,2.951
	c-0.551,0.697-1.07,1.556-1.541,2.594c-0.291,0.6-0.68,1.573-1.184,2.854c-0.842,2.22-1.557,3.728-2.156,4.474
	c-0.811,1.054-1.929,1.59-3.356,1.605H5.896c-0.762,0-1.346-0.194-1.735-0.583c-0.341-0.325-0.519-0.73-0.519-1.233
	c0-0.502,0.178-0.907,0.519-1.231C4.55,13.994,5.134,13.8,5.896,13.8h3.615v-3.615H5.896c-1.784,0-3.227,0.567-4.329,1.669
	c-1.021,1.021-1.557,2.27-1.557,3.761c0,1.492,0.535,2.74,1.557,3.762C2.669,20.496,4.112,21.047,5.896,21.047L5.896,21.047z"
        />
        <g transform="matrix(1 0 0 1 28 8.5)">
            
        <text transform="matrix(1 0 0 1 0 0)"
        fill="#AAAAAA"
        font-family="Sans-Serif"
        font-style="normal"
        font-size="10"
        >score:</text>
        
            
        <text transform="matrix(1 0 0 1 0 13)"
        fill="#AAAAAA"
        font-family="Sans-Serif"
        font-style="normal"
        font-size="13"
        >17856</text>
        
        </g>
        </g>
        ,
        <g transform="matrix(1 0 0 1 202 114)">
        <path
        fill="#fc4646"
        d="M23.828,15.156l-8.638,8.62c-0.034,0.034-0.086,0.052-0.121,0.034
	L3.271,20.649c-0.051-0.018-0.086-0.053-0.086-0.087L0.007,8.782c-0.018-0.051,0-0.086,0.035-0.121l8.637-8.62
	C8.713,0.007,8.765-0.011,8.8,0.007l11.798,3.161c0.052,0.017,0.086,0.052,0.086,0.086l3.161,11.781
	C23.88,15.087,23.862,15.122,23.828,15.156z M12.254,5.776L0.663,8.869c-0.017,0-0.034,0.034-0.017,0.051l8.482,8.464
	c0.017,0.018,0.051,0.018,0.051-0.017l3.109-11.574C12.306,5.793,12.271,5.759,12.254,5.776z"
        />
        <g transform="matrix(1 0 0 1 28 8.5)">
            
        <text transform="matrix(1 0 0 1 0 0)"
        fill="#AAAAAA"
        font-family="Sans-Serif"
        font-style="normal"
        font-size="10"
        >score:</text>
        
            
        <text transform="matrix(1 0 0 1 0 13)"
        fill="#AAAAAA"
        font-family="Sans-Serif"
        font-style="normal"
        font-size="13"
        >17856</text>
        
        </g>
        </g>
        
     
        
            </svg>
        