<?xml version="1.0" encoding="utf-8"?>
<!-- Generator: Adobe Illustrator 16.0.0, SVG Export Plug-In . SVG Version: 6.00 Build 0)  -->
<!DOCTYPE svg PUBLIC "-//W3C//DTD SVG 1.1//EN" "http://www.w3.org/Graphics/SVG/1.1/DTD/svg11.dtd">
<svg version="1.1" xmlns="http://www.w3.org/2000/svg" xmlns:xlink="http://www.w3.org/1999/xlink" x="0px" y="0px" width="400px"
	 height="180px" viewBox="0 -30 400 180" enable-background="new 0 -30 400 180" xml:space="preserve">
<!-- <g id="card">
	<rect x="0" y="-30" fill="#303133" width="400" height="180"/>
</g> -->
<!-- <g id="progressBar">
	<line fill="#ECB613" stroke="#ECB613" stroke-width="13" stroke-miterlimit="10" x1="0" y1="39.5" x2="134.334" y2="39.5"/>
	<text transform="matrix(1 0 0 1 20.5002 43.5)" fill="#AAAAAA" font-family="'MyriadPro-Semibold'" font-size="13">21.6%</text>
</g> -->
<!-- <g id="header">
	<text transform="matrix(1 0 0 1 96.3328 7)" fill="#E8E8E8" font-family="'ArialMT'" font-size="20">Christian Haag</text>
	<polygon fill="#1D1D1F" points="302.992,-19 297.25,-19 291.008,-19 285.016,0.624 291.008,20.25 296.11,20.25 302.992,20.25 
		400,20.25 400,-19 	"/>
	<path fill="#B92F21" d="M386.134-11.41H365.46c-1.145,0.004-2.068,0.928-2.071,2.071v20.678c0.003,1.143,0.927,2.067,2.071,2.071
		h20.674c1.145-0.004,2.07-0.928,2.074-2.071V-9.339C388.204-10.482,387.279-11.406,386.134-11.41z M386.607,3.34
		c-0.1,0.1-0.198,0.207-0.338,0.349c0.198,1.199-0.584,1.909-1.445,2.573c-0.896,0.694-1.794,1.381-2.699,2.061
		c-0.205,0.151-0.451,0.242-0.68,0.363c-0.562,1.558-0.777,1.752-1.974,1.724c-0.284,0.77-0.855,1.075-1.684,0.861
		c-0.055-0.017-0.142-0.065-0.157-0.046c-0.807,0.828-1.728,0.19-2.567,0.136c-0.619-0.042-1.248-0.439-1.805-0.784
		c-0.47-0.291-0.806-0.827-1.478-0.67c-0.03,0.002-0.058-0.002-0.083-0.018c-0.646-0.469-1.428-0.182-2.085-0.357
		c-0.849-0.229-1.604-0.822-2.385-1.291c-0.114-0.068-0.137-0.301-0.197-0.46c-0.041-0.109-0.041-0.297-0.104-0.318
		c-0.849-0.29-0.817-1.1-1.099-1.746c-0.26-0.601-0.442-1.14-0.112-1.765c0.079-0.146,0.078-0.395,0.009-0.555
		c-0.427-1.024-0.438-1.021-0.331-2.038c-0.88-0.751-1.011-1.319-0.298-2.223c-0.284-0.649-0.427-1.305,0.354-1.772
		c0.061-0.036,0.078-0.149,0.101-0.23c0.252-1.001,1.009-1.631,1.806-2.123c0.727-0.451,1.612-0.564,2.093-1.474
		c0.178-0.341,0.734-0.539,0.848-1.059c0.024-0.124,0.162-0.243,0.276-0.32c0.574-0.382,1.243-0.582,1.766-1.1
		c0.221-0.217,0.835-0.035,1.416-0.035c0.774-0.967,1.836-0.182,2.818-0.056c0.465,0.06,0.881,0.473,1.33,0.706
		c0.197,0.103,0.417,0.168,0.633,0.223c0.135,0.033,0.303-0.031,0.427,0.022c0.688,0.299,1.371,0.494,2.123,0.205
		c0.102-0.039,0.333,0.039,0.391,0.132c0.482,0.771,1.458,0.522,2.046,1.022c0.17,0.144,0.196,0.454,0.313,0.748
		c0.563,0.183,1.179,0.406,1.031,1.25c0.603,0.372,0.206,1.159,0.66,1.594c-0.477,1.041,0.632,1.906,0.319,2.998
		c0.148,0.102,0.368,0.195,0.502,0.362c0.188,0.237,0.505,0.65,0.427,0.778C386.291,1.775,387.332,2.624,386.607,3.34L386.607,3.34z
		 M375.556-6.081c-1.145,0.426-1.158,0.445-0.901,1.473c-0.561,0.248-0.896,0.65-0.602,1.328c0.032,0.105,0.019,0.223-0.046,0.317
		c-0.261,0.309-0.216,0.595-0.078,0.952c0.075,0.198-0.073,0.48-0.116,0.72c0.243,0.337,0.512,0.659,0.718,1.013
		c0.078,0.134,0.099,0.433,0.019,0.496c-0.124,0.099-0.39,0.132-0.539,0.067c-0.602-0.262-1.231-0.5-1.749-0.884
		c-0.405-0.3-0.689-0.781-0.978-1.215c-0.212-0.317-0.343-0.687-0.588-1.196c0.055-0.109,0.197-0.375,0.324-0.649
		c0.088-0.194,0.272-0.438,0.218-0.585c-0.161-0.437,0.148-0.771,0.155-1.127c0.017-0.92,1.035-1.105,1.218-1.861
		c0.982-0.432,1.893-1.145,3.08-0.792c0.186,0.056,0.386,0.05,0.556,0.073c0.215,0.432-0.02,0.673-0.234,0.957
		C375.815-6.734,375.709-6.402,375.556-6.081L375.556-6.081z M382.676-5.278l1.146,1.015l0.304,1.345l-0.174,0.138
		c-0.763-0.498-1.73,0.056-2.472-0.593c-0.055-0.049-0.165-0.064-0.248-0.051c-0.739,0.112-1.514,0.128-2.206,0.376
		c-1.303,0.469-2.497,1.159-3.33,2.5c-0.568-0.603-0.563-1.226-0.434-1.84c0.126-0.594,0.338-1.169,0.525-1.803
		c0.722,0.008,0.69-0.668,0.885-1.069c1.608-0.617,3.152-1.29,4.968-0.649C381.813-5.512,382.145-5.099,382.676-5.278L382.676-5.278
		z M375.732,1.75c0.641,1.385,0.18,2.601-0.398,3.747c-0.247,0.325-0.497,0.649-0.744,0.977c-0.068,0.091-0.122,0.272-0.188,0.272
		c-0.861-0.002-1.376,0.858-2.286,0.848c-0.729-0.007-1.424,0.132-2.17-0.122c-0.874-0.297-1.57-0.749-2.22-1.393
		c-0.533-0.526-0.673-1.04-0.479-1.723h1.749c0.416,0.512,1.01,0.791,1.776,0.335c0.125-0.075,0.328-0.018,0.49-0.038
		c0.333-0.041,0.666-0.074,0.993-0.149c0.318-0.073,0.631-0.191,0.945-0.29c0.108-0.033,0.248-0.031,0.322-0.102
		c0.457-0.441,0.906-0.891,1.345-1.352C375.14,2.472,375.388,2.154,375.732,1.75L375.732,1.75z M368.659-4.383
		c-0.083,0.717,0.005,1.28,0.679,1.628c-0.262,0.744-0.312,1.4,0.604,1.666c0.049,0.014,0.13,0.058,0.13,0.093
		c0.069,0.817,0.79,0.903,1.313,1.265c0.839,0.577,1.674,0.947,2.704,0.823c0.167-0.02,0.349,0.066,0.539,0.105
		c-0.102,0.825-0.729,1.213-1.239,1.395c-0.968,0.344-1.949,0.978-3.082,0.425c-0.216-0.105-0.553,0.031-0.743,0.048
		c-1.183-0.55-1.75-1.686-2.743-2.418c0.048-0.514,0.432-1.114-0.22-1.461C366.76-2.378,367.32-3.602,368.659-4.383L368.659-4.383z
		 M383.055,6.139c-0.112-0.296-0.282-0.523-0.248-0.708c0.108-0.57-0.111-0.946-0.605-1.258c0.229-0.693-0.011-1.205-0.635-1.575
		c-0.138-0.083-0.26-0.301-0.277-0.471c-0.058-0.479-0.31-0.712-0.773-0.771c-0.138-0.016-0.326-0.039-0.394-0.133
		c-0.668-0.923-1.702-0.907-2.67-1.076c-0.233-0.039-0.468-0.071-0.726-0.11c0.071-0.829,0.739-1.071,1.173-1.23
		c0.99-0.363,2.07-0.861,3.134-0.408c0.84,0.36,1.882,0.422,2.441,1.368c0.169,0.29,0.564,0.449,0.854,0.668l0.53,1.636v1.7
		C384.407,4.457,384.062,5.407,383.055,6.139L383.055,6.139z M373.223,9.039c1.619,0.021,1.793-0.083,2.156-1.274
		c0.688-0.229,1.281-0.588,1.289-1.471c0-0.107,0.17-0.214,0.256-0.322c0.11-0.13,0.298-0.249,0.314-0.391
		c0.126-1.051,0.354-2.107-0.017-3.156c-0.144-0.417-0.307-0.826-0.524-1.405c0.425,0.043,0.704,0.016,0.943,0.105
		c1.019,0.373,1.834,1.058,2.471,1.904c0.302,0.399,0.381,0.963,0.608,1.583c-0.25,0.37-0.367,0.904,0.097,1.446
		c-0.612,0.497-0.929,1.078-0.833,1.753l-1.485,1.431l-1.299,0.577c-0.407,0.077-0.809,0.19-1.215,0.218
		c-0.391,0.028-0.867,0.099-1.165-0.081C374.32,9.66,373.521,9.884,373.223,9.039L373.223,9.039z"/>
	<text transform="matrix(1 0 0 1 116.5002 20.25)" fill="#AAAAAA" font-family="'MyriadPro-It'" font-size="13">vanhaaggen</text>
	<text transform="matrix(1 0 0 1 96.3328 20.25)" fill="#727272" font-family="'MyriadPro-It'" font-size="10">alias </text>
	<text transform="matrix(1 0 0 1 307.3206 5)" fill="#AAAAAA" font-family="'ArialMT'" font-size="12">135</text>
	<polygon fill="#141414" stroke="#ECB613" stroke-miterlimit="10" points="83.891,1.001 77.668,-9.777 66.167,-9.777 65.223,-9.777 
		33.501,-9.777 32.917,-9.777 21.056,-9.777 14.833,1.001 21.056,11.778 32.917,11.778 33.501,11.778 66.167,11.778 66.167,11.777 
		77.668,11.777 	"/> -->
	<!-- <text transform="matrix(1 0 0 1 40.7854 5.8535)" fill="#ECB613" font-family="'ArialMT'" font-size="14">6 kyu</text>
	<path fill="#ECB613" d="M30.699-6.042h-8.133L18.5,1.001l4.066,7.042h8.133l4.066-7.042L30.699-6.042z M30.101-3.044
		c0.102,0.234,0.297,0.477,0.608,0.372l0.672,0.596l0.179,0.79l-0.102,0.081c-0.448-0.292-1.016,0.033-1.45-0.348
		c-0.033-0.029-0.098-0.038-0.146-0.03c-0.433,0.066-0.889,0.075-1.294,0.221c-0.766,0.275-1.467,0.681-1.955,1.468
		c-0.334-0.354-0.332-0.72-0.255-1.081c0.075-0.349,0.199-0.686,0.309-1.058c0.424,0.005,0.405-0.393,0.52-0.628
		C28.13-3.025,29.035-3.419,30.101-3.044z M23.867-1.723c0.053-0.114,0.16-0.257,0.127-0.343c-0.095-0.256,0.088-0.453,0.091-0.661
		c0.01-0.541,0.608-0.649,0.715-1.093c0.576-0.253,1.111-0.672,1.809-0.465c0.108,0.033,0.225,0.03,0.324,0.042
		c0.126,0.254-0.009,0.395-0.136,0.562c-0.117,0.153-0.177,0.349-0.268,0.538c-0.672,0.25-0.68,0.261-0.53,0.865
		c-0.327,0.146-0.525,0.381-0.353,0.779c0.02,0.062,0.01,0.131-0.026,0.186c-0.155,0.181-0.126,0.35-0.046,0.559
		c0.044,0.116-0.043,0.282-0.069,0.422c0.143,0.198,0.3,0.386,0.422,0.595c0.045,0.079,0.057,0.254,0.01,0.291
		c-0.072,0.058-0.228,0.078-0.316,0.039C25.27,0.439,24.901,0.3,24.596,0.074c-0.238-0.176-0.404-0.458-0.575-0.713
		c-0.124-0.187-0.2-0.403-0.345-0.703C23.71-1.405,23.793-1.562,23.867-1.723z M21.273-0.051c0.094-0.919,0.423-1.637,1.208-2.095
		c-0.048,0.421,0.004,0.751,0.4,0.956c-0.155,0.437-0.185,0.822,0.354,0.978c0.03,0.008,0.076,0.034,0.077,0.055
		c0.04,0.48,0.462,0.53,0.769,0.742c0.492,0.339,0.984,0.557,1.587,0.483c0.098-0.012,0.205,0.039,0.317,0.062
		c-0.061,0.484-0.429,0.712-0.728,0.819c-0.568,0.202-1.145,0.574-1.809,0.25c-0.127-0.062-0.325,0.018-0.436,0.028
		c-0.694-0.323-1.027-0.99-1.61-1.42C21.431,0.505,21.655,0.152,21.273-0.051z M23.238,4.813c-0.513-0.175-0.922-0.44-1.303-0.817
		c-0.313-0.309-0.395-0.611-0.282-1.012h1.026c0.246,0.3,0.594,0.465,1.044,0.197c0.073-0.043,0.191-0.01,0.288-0.022
		c0.194-0.023,0.39-0.042,0.582-0.087c0.188-0.043,0.371-0.113,0.555-0.171c0.063-0.019,0.146-0.018,0.19-0.059
		c0.269-0.259,0.532-0.524,0.789-0.794c0.161-0.169,0.306-0.356,0.507-0.593c0.375,0.813,0.104,1.526-0.235,2.199
		c-0.145,0.191-0.292,0.381-0.435,0.573c-0.041,0.053-0.073,0.16-0.11,0.16c-0.506-0.001-0.809,0.504-1.343,0.498
		C24.083,4.879,23.675,4.961,23.238,4.813z M29.131,5.012l-0.874,0.839L27.496,6.19c-0.24,0.045-0.475,0.112-0.714,0.128
		c-0.229,0.017-0.508,0.059-0.684-0.047c-0.293-0.174-0.763-0.042-0.937-0.539c0.951,0.013,1.051-0.049,1.264-0.748
		c0.405-0.135,0.753-0.345,0.758-0.863c0-0.063,0.098-0.125,0.15-0.189c0.063-0.075,0.174-0.146,0.184-0.229
		c0.074-0.617,0.208-1.237-0.009-1.853c-0.085-0.244-0.182-0.485-0.309-0.825c0.249,0.025,0.414,0.01,0.554,0.062
		c0.598,0.219,1.076,0.621,1.451,1.118c0.176,0.234,0.223,0.565,0.357,0.929c-0.148,0.217-0.216,0.53,0.056,0.849
		C29.26,4.274,29.073,4.616,29.131,5.012z M30.932,4.028L30.932,4.028c-0.065-0.172-0.167-0.306-0.146-0.414
		c0.064-0.334-0.067-0.556-0.355-0.739c0.133-0.407-0.007-0.708-0.372-0.925c-0.082-0.048-0.153-0.177-0.164-0.276
		c-0.033-0.282-0.182-0.418-0.454-0.453c-0.081-0.009-0.191-0.023-0.231-0.078c-0.392-0.542-1-0.532-1.567-0.631
		c-0.137-0.023-0.274-0.042-0.425-0.064c0.041-0.487,0.432-0.629,0.687-0.722c0.582-0.213,1.216-0.506,1.839-0.24
		c0.495,0.211,1.105,0.248,1.433,0.803c0.101,0.17,0.332,0.264,0.503,0.393l0.312,0.961v0.997C31.727,3.042,31.523,3.6,30.932,4.028
		z"/>
	<path fill="#AAAAAA" d="M301.301-3.7h-6.89v0.861l2.502,1.878c-1.581,0.521-2.441,2.227-1.922,3.807
		c0.522,1.581,2.219,2.442,3.808,1.921c1.58-0.521,2.442-2.222,1.921-3.807c-0.302-0.909-1.012-1.624-1.921-1.92l2.502-1.878V-3.7
		 M299.122,3.837l-1.267-0.741l-1.265,0.741l0.335-1.434l-1.115-0.965l1.469-0.125l0.576-1.353l0.578,1.353l1.469,0.125
		l-1.116,0.965L299.122,3.837z"/> -->
<!-- </g>
<g id="challenges">
	<text transform="matrix(1 0 0 1 201.5002 84.7822)"><tspan x="0" y="0" fill="#E8E8E8" font-family="'MyriadPro-Bold'" font-size="14">Total authored:</tspan><tspan x="97.257" y="0" fill="#E8E8E8" font-family="'MyriadPro-Regular'" font-size="14">  1555,</tspan></text>
	<text transform="matrix(1 0 0 1 15.5002 84.7822)"><tspan x="0" y="0" fill="#E8E8E8" font-family="'MyriadPro-Regular'" font-size="14"> </tspan><tspan x="3.01" y="0" fill="#E8E8E8" font-family="'MyriadPro-Bold'" font-size="14">Total completed:</tspan><tspan x="109.198" y="0" fill="#E8E8E8" font-family="'MyriadPro-Regular'" font-size="14"> 155555</tspan></text>
	<text transform="matrix(1 0 0 1 17.5002 66.5)" fill="#AAAAAA" font-family="'MyriadPro-Regular'" font-size="12">Challenges:</text>
</g> -->
<g id="top3">
	<text transform="matrix(1 0 0 1 18.5002 103.5)" fill="#AAAAAA" font-family="'MyriadPro-Regular'" font-size="12">Top 3 languages:</text>
	<g id="Capa_6">
		<text transform="matrix(1 0 0 1 49.4993 134.833)" fill="#AAAAAA" font-family="'MyriadPro-Semibold'" font-size="13">2583</text>
		<text transform="matrix(1 0 0 1 50.0002 122)" fill="#AAAAAA" font-family="'MyriadPro-Regular'" font-size="10">score:</text>
		<path fill="#E8E8E8" d="M24.266,116.5h21v21h-21V116.5z M43.546,132.491c-0.153-0.958-0.777-1.763-2.628-2.514
			c-0.644-0.302-1.359-0.512-1.572-0.997c-0.08-0.289-0.092-0.446-0.04-0.617c0.131-0.565,0.8-0.735,1.326-0.577
			c0.341,0.104,0.656,0.367,0.854,0.787c0.905-0.592,0.905-0.592,1.536-0.984c-0.236-0.367-0.354-0.525-0.513-0.683
			c-0.551-0.617-1.286-0.932-2.48-0.904l-0.617,0.077c-0.592,0.145-1.155,0.46-1.497,0.88c-0.997,1.13-0.709,3.099,0.498,3.912
			c1.194,0.893,2.941,1.089,3.164,1.93c0.21,1.023-0.761,1.352-1.72,1.233c-0.71-0.157-1.103-0.513-1.536-1.169l-1.601,0.92
			c0.184,0.42,0.394,0.603,0.708,0.97c1.522,1.537,5.329,1.458,6.012-0.878c0.025-0.079,0.21-0.617,0.064-1.444L43.546,132.491
			L43.546,132.491z M35.685,126.152h-1.967c0,1.695-0.008,3.381-0.008,5.079c0,1.078,0.055,2.067-0.121,2.372
			c-0.289,0.603-1.033,0.526-1.371,0.42c-0.346-0.171-0.522-0.407-0.726-0.748c-0.055-0.092-0.096-0.172-0.111-0.172l-1.597,0.984
			c0.267,0.552,0.656,1.026,1.159,1.328c0.748,0.446,1.753,0.591,2.806,0.354c0.686-0.198,1.276-0.605,1.585-1.235
			c0.446-0.813,0.352-1.811,0.347-2.928c0.011-1.797,0-3.595,0-5.406L35.685,126.152L35.685,126.152z"/>
	</g>
	<g id="Capa_7">
		<path fill="#E8E8E8" d="M129.726,115.983c2.697,0.468,3.462,2.312,3.406,4.243l0.013-0.027l-1.214,15.911l-15.785,1.082h0.014
			c-1.31-0.056-4.23-0.175-4.364-4.258l1.463-2.669l2.508,5.859l0.447,1.041l2.496-8.133l-0.027,0.006l0.015-0.026l8.231,2.629
			l-1.241-4.831l-0.881-3.469l7.845-0.506l-0.547-0.453l-5.632-4.592l3.255-1.816L129.726,115.983z M111.797,132.89v0.023v-0.026
			V132.89z M116.36,120.422c3.168-3.142,7.256-4.999,8.826-3.415c1.567,1.58-0.093,5.431-3.267,8.571
			c-3.169,3.143-7.208,5.101-8.774,3.521c-1.571-1.581,0.041-5.53,3.213-8.674L116.36,120.422L116.36,120.422z"/>
		<text transform="matrix(1 0 0 1 138.0002 122)" fill="#AAAAAA" font-family="'MyriadPro-Regular'" font-size="10">score:</text>
		<text transform="matrix(1 0 0 1 138.4993 134.833)" fill="#AAAAAA" font-family="'MyriadPro-Semibold'" font-size="13">345</text>
	</g>
	<g id="Capa_8">
		<path fill="#E8E8E8" d="M202,126.846v10.347h20.692V116.5H202V126.846z M218.676,126.021c0.525,0.132,0.926,0.365,1.294,0.746
			c0.19,0.203,0.474,0.575,0.495,0.664c0.008,0.026-0.893,0.63-1.438,0.969c-0.02,0.013-0.1-0.072-0.188-0.204
			c-0.268-0.388-0.545-0.555-0.973-0.585c-0.627-0.043-1.031,0.286-1.027,0.834c-0.006,0.136,0.024,0.27,0.088,0.388
			c0.139,0.286,0.395,0.458,1.199,0.806c1.481,0.638,2.115,1.058,2.509,1.655c0.44,0.666,0.54,1.73,0.24,2.522
			c-0.327,0.86-1.143,1.444-2.29,1.638c-0.354,0.063-1.194,0.054-1.575-0.015c-0.831-0.149-1.619-0.56-2.105-1.099
			c-0.19-0.209-0.563-0.758-0.539-0.797c0.01-0.014,0.095-0.067,0.19-0.122c0.092-0.053,0.439-0.253,0.768-0.443l0.596-0.346
			l0.125,0.186c0.174,0.265,0.555,0.629,0.785,0.751c0.66,0.349,1.566,0.3,2.013-0.102c0.183-0.153,0.282-0.383,0.271-0.62
			c0-0.24-0.031-0.345-0.156-0.526c-0.16-0.229-0.488-0.423-1.422-0.828c-1.066-0.459-1.526-0.745-1.947-1.198
			c-0.263-0.299-0.457-0.652-0.568-1.035c-0.078-0.291-0.098-1.024-0.036-1.319c0.22-1.032,0.999-1.75,2.122-1.965
			C217.471,125.907,218.319,125.933,218.676,126.021L218.676,126.021z M213.819,126.886l0.006,0.848h-2.693v7.652h-1.906v-7.652
			h-2.691v-0.831c0-0.46,0.01-0.845,0.022-0.854c0.011-0.014,1.649-0.021,3.636-0.017l3.617,0.01L213.819,126.886z"/>
		<text transform="matrix(1 0 0 1 228.0002 122)" fill="#AAAAAA" font-family="'MyriadPro-Regular'" font-size="10">score:</text>
		<text transform="matrix(1 0 0 1 228.4993 134.833)" fill="#AAAAAA" font-family="'MyriadPro-Semibold'" font-size="13">73</text>
	</g>
</g>
</svg>
